<svg width="1200" height="900" viewBox="0 0 1200 900" fill="none" xmlns="http://www.w3.org/2000/svg" role="img" aria-labelledby="title desc">
  <title id="title">Imagem simulada de projeto integrador</title>
  <desc id="desc">Ilustração abstrata de desenvolvimento de software, cards, telas e componentes conectados.</desc>
  <defs>
    <linearGradient id="bg" x1="0" y1="0" x2="1200" y2="900" gradientUnits="userSpaceOnUse">
      <stop stop-color="#0B2A4A"/>
      <stop offset="0.48" stop-color="#123A61"/>
      <stop offset="1" stop-color="#198754"/>
    </linearGradient>
  </defs>
  <rect width="1200" height="900" fill="url(#bg)"/>
  <circle cx="980" cy="180" r="210" fill="#2D9CDB" fill-opacity="0.16"/>
  <circle cx="220" cy="710" r="180" fill="#8CE8B3" fill-opacity="0.15"/>
  <rect x="225" y="175" width="750" height="500" rx="44" fill="#F3FAFD" fill-opacity="0.96" stroke="white" stroke-opacity="0.24" stroke-width="4"/>
  <rect x="225" y="175" width="750" height="82" rx="44" fill="#0B2A4A"/>
  <circle cx="285" cy="216" r="12" fill="#8CE8B3"/>
  <circle cx="325" cy="216" r="12" fill="#2D9CDB"/>
  <circle cx="365" cy="216" r="12" fill="#FFFFFF" fill-opacity="0.72"/>
  <rect x="295" y="315" width="250" height="250" rx="28" fill="#EAF6FF"/>
  <rect x="585" y="315" width="320" height="94" rx="26" fill="#DFF8E9"/>
  <rect x="585" y="445" width="320" height="120" rx="26" fill="#EAF6FF"/>
  <path d="M360 437L410 487L498 375" stroke="#198754" stroke-width="24" stroke-linecap="round" stroke-linejoin="round"/>
  <rect x="625" y="350" width="220" height="18" rx="9" fill="#0B2A4A" fill-opacity="0.74"/>
  <rect x="625" y="484" width="235" height="18" rx="9" fill="#0B2A4A" fill-opacity="0.62"/>
  <rect x="625" y="524" width="180" height="18" rx="9" fill="#198754" fill-opacity="0.8"/>
  <path d="M0 710C185 660 325 670 490 728C690 800 895 792 1200 680V900H0V710Z" fill="#06182B" fill-opacity="0.42"/>
  <text x="600" y="792" text-anchor="middle" fill="white" font-family="Arial, sans-serif" font-size="52" font-weight="800">Projetos Integradores</text>
</svg>
